#!OML:ASF H:\GeneralSubjects\Female5\Project 1\Capture day 1\Session 1\Female5.ASF
:FULLY-SPECIFIED
:DEGREES
504
root -14.6156 15.9361 -1.40436 -103.428 -276.325 -116.472
lowerback 16.8779 2.98541 11.9117
upperback -10.2793 7.05054 -2.72231
thorax -19.4995 1.26628 -12.2063
lowerneck -16.6243 -3.39125 1.0681
upperneck 37.2191 -3.10524 -2.25139
head 15.9376 -0.931863 -1.57306
rclavicle 3.74274e-014 -5.96354e-015
rhumerus -42.1255 12.5031 -85.9414
rradius 43.219
rwrist -8.03485
rhand -27.7484 -18.5307
rfingers 7.12502
rthumb -1.14292 -48.5074
lclavicle 3.74274e-014 -5.96354e-015
lhumerus -49.7754 -12.6547 74.8163
lradius 29.4931
lwrist -2.7313
lhand -21.5679 31.3913
lfingers 7.12502
lthumb 4.82597 61.3164
rfemur -9.13704 5.65987 38.4439
rtibia 8.49056
rfoot -12.5582 -12.2965
rtoes -18.1937
lfemur -42.819 -8.86198 -18.4833
ltibia 35.3708
lfoot -24.8138 -17.0187
ltoes -25.8001
505
root -14.9253 15.9811 -1.40497 -107.346 -276.437 -120.359
lowerback 16.8971 2.79241 11.9317
upperback -10.1609 6.75978 -2.80117
thorax -19.4343 1.13792 -12.219
lowerneck -16.6164 -3.43079 1.15642
upperneck 37.3657 -3.27993 -2.00323
head 16.0098 -0.948693 -1.51458
rclavicle 3.82847e-014 4.37326e-014
rhumerus -43.7335 11.0739 -85.9982
rradius 43.0601
rwrist -8.2821
rhand -27.6168 -18.7866
rfingers 7.12502
rthumb -1.01583 -48.764
lclavicle 3.82847e-014 4.37326e-014
lhumerus -48.4261 -13.8699 75.8318
lradius 30.1633
lwrist -2.93358
lhand -22.3773 30.8786
lfingers 7.12502
lthumb 4.04448 60.8199
rfemur -10.2094 5.55391 38.1603
rtibia 8.12933
rfoot -11.6333 -12.9201
rtoes -18.95
lfemur -42.3616 -7.92766 -19.2691
ltibia 40.8135
lfoot -23.6206 -18.004
ltoes -25.2794
506
root -15.2283 16.0213 -1.40879 -110.837 -276.436 -123.778
lowerback 16.9002 2.64539 11.8122
upperback -10.0492 6.49002 -2.90687
thorax -19.3739 1.03482 -12.1899
lowerneck -16.5564 -3.46056 1.2739
upperneck 37.4883 -3.43643 -1.78593
head 16.0568 -0.958057 -1.46917
rclavicle -3.02153e-014 9.54166e-015
rhumerus -45.4393 9.68872 -86.0296
rradius 42.8632
rwrist -8.72914
rhand -27.5136 -18.9476
rfingers 7.12502
rthumb -0.916144 -48.9254
lclavicle -3.02153e-014 9.54166e-015
lhumerus -47.1249 -15.1254 76.7232
lradius 31.1991
lwrist -2.81652
lhand -23.2227 30.3992
lfingers 7.12502
lthumb 3.22802 60.3545
rfemur -11.066 5.67634 37.7488
rtibia 7.53536
rfoot -10.7482 -13.7311
rtoes -19.7349
lfemur -41.3497 -7.06467 -19.9919
ltibia 45.6508
lfoot -22.6129 -18.9774
ltoes -24.6324
507
root -15.5244 16.0544 -1.41465 -113.998 -276.314 -126.854
lowerback 16.8619 2.549 11.5539
upperback -9.95355 6.24661 -3.03845
thorax -19.311 0.960135 -12.1176
lowerneck -16.4526 -3.47756 1.4358
upperneck 37.6072 -3.55876 -1.63593
head 16.0892 -0.955558 -1.45302
rclavicle 5.05565e-014 -6.36111e-015
rhumerus -47.1919 8.41048 -86.0505
rradius 42.5869
rwrist -9.30175
rhand -27.3222 -19.1402
rfingers 7.12502
rthumb -0.731292 -49.1186
lclavicle 5.05565e-014 -6.36111e-015
lhumerus -45.9212 -16.4126 77.482
lradius 32.6645
lwrist -2.45704
lhand -23.9162 30.3351
lfingers 7.12502
lthumb 2.5583 60.2995
rfemur -11.7728 6.0987 37.2103
rtibia 6.79474
rfoot -9.92676 -14.7535
rtoes -20.4978
lfemur -39.7895 -6.17715 -20.6811
ltibia 49.7021
lfoot -21.6643 -19.7689
ltoes -24.1903
508
root -15.8143 16.079 -1.42202 -116.794 -276.105 -129.574
lowerback 16.7582 2.50036 11.2079
upperback -9.88222 6.04041 -3.18437
thorax -19.2334 0.914099 -12.0183
lowerneck -16.3069 -3.47518 1.66758
upperneck 37.7321 -3.63158 -1.58446
head 16.1105 -0.935155 -1.48168
rclavicle 1.75614e-014 -6.36111e-015
rhumerus -48.9572 7.27523 -86.0724
rradius 42.1982
rwrist -9.85654
rhand -27.0449 -19.3592
rfingers 7.12502
rthumb -0.46342 -49.3384
lclavicle 1.75614e-014 -6.36111e-015
lhumerus -44.8401 -17.6924 78.094
lradius 34.5679
lwrist -1.94017
lhand -24.2685 30.9713
lfingers 7.12502
lthumb 2.21805 60.9395
rfemur -12.4098 6.86061 36.5841
rtibia 6.02188
rfoot -9.19938 -15.9894
rtoes -21.1805
lfemur -37.7257 -5.22549 -21.2913
ltibia 52.8505
lfoot -20.6922 -20.2367
ltoes -24.1258
509
root -16.0985 16.0941 -1.43109 -119.07 -275.846 -131.803
lowerback 16.5739 2.49293 10.8365
upperback -9.84203 5.88086 -3.33459
thorax -19.1323 0.894212 -11.9172
lowerneck -16.1557 -3.46442 1.84088
upperneck 37.9033 -3.65757 -1.5492
head 16.1568 -0.902751 -1.499
rclavicle -6.30706e-014 1.27222e-014
rhumerus -50.7237 6.30753 -86.1217
rradius 41.6953
rwrist -10.3186
rhand -26.7139 -19.6475
rfingers 7.12502
rthumb -0.143786 -49.6272
lclavicle -6.30706e-014 1.27222e-014
lhumerus -43.8836 -18.9112 78.5481
lradius 36.8678
lwrist -1.33082
lhand -24.5635 32.0202
lfingers 7.12502
lthumb 1.93312 61.9912
rfemur -13.0565 7.90439 35.9192
rtibia 5.31747
rfoot -9.01241 -17.1571
rtoes -19.5326
lfemur -35.2122 -4.20488 -21.7754
ltibia 55.0379
lfoot -19.6111 -20.2538
ltoes -24.4766
510
root -16.3784 16.0989 -1.44262 -120.719 -275.555 -133.434
lowerback 16.3169 2.51448 10.4873
upperback -9.83442 5.76604 -3.48567
thorax -19.0113 0.892927 -11.8376
lowerneck -15.9969 -3.43553 1.94209
upperneck 38.1137 -3.62874 -1.50205
head 16.2259 -0.853338 -1.4888
rclavicle -5.45478e-014 2.8625e-014
rhumerus -52.4776 5.50328 -86.2105
rradius 41.0933
rwrist -10.6199
rhand -26.3195 -20.0325
rfingers 7.12502
rthumb 0.237135 -50.0121
lclavicle -5.45478e-014 2.8625e-014
lhumerus -43.0303 -20.004 78.8359
lradius 39.4692
lwrist -0.68492
lhand -24.8992 33.2941
lfingers 7.12502
lthumb 1.60889 63.2678
rfemur -13.7702 9.10966 35.2468
rtibia 4.7547
rfoot -9.04965 -18.3686
rtoes -17.6379
lfemur -32.2741 -3.20472 -22.0842
ltibia 56.2673
lfoot -18.3504 -19.8284
ltoes -25.1247
511
root -16.6556 16.0931 -1.45778 -121.735 -275.247 -134.449
lowerback 16.0082 2.55005 10.1888
upperback -9.85604 5.68493 -3.63734
thorax -18.8802 0.900323 -11.7946
lowerneck -15.8291 -3.38135 1.97758
upperneck 38.3547 -3.54131 -1.43276
head 16.3137 -0.783632 -1.44677
rclavicle 2.95195e-014 -2.38542e-015
rhumerus -54.175 4.7989 -86.2813
rradius 40.4347
rwrist -10.4121
rhand -25.5906 -20.9015
rfingers 7.12502
rthumb 0.941191 -50.8792
lclavicle 2.95195e-014 -2.38542e-015
lhumerus -42.2697 -20.9338 78.9708
lradius 42.2694
lwrist -0.0369606
lhand -25.4224 34.3092
lfingers 7.12502
lthumb 1.10364 64.2861
rfemur -14.5837 10.3304 34.5802
rtibia 4.37023
rfoot -9.28167 -19.5237
rtoes -15.6212
lfemur -28.952 -2.30633 -22.2398
ltibia 56.4938
lfoot -16.9548 -18.8723
ltoes -26.0589
512
root -16.9323 16.0769 -1.47795 -122.181 -274.922 -134.9
lowerback 15.6757 2.58696 9.95272
upperback -9.89723 5.62386 -3.79201
thorax -18.7471 0.907768 -11.7958
lowerneck -15.6509 -3.29328 2.00447
upperneck 38.5971 -3.39168 -1.37505
head 16.4019 -0.690734 -1.39665
rclavicle -3.67752e-015 1.82882e-014
rhumerus -55.7752 4.17499 -86.3181
rradius 39.6913
rwrist -9.69659
rhand -24.6232 -21.9437
rfingers 7.12502
rthumb 1.8755 -51.9152
lclavicle -3.67752e-015 1.82882e-014
lhumerus -41.5933 -21.6918 78.9822
lradius 45.1722
lwrist 0.57246
lhand -26.1592 34.8484
lfingers 7.12502
lthumb 0.392022 64.8278
rfemur -15.5245 11.3925 33.9208
rtibia 4.18965
rfoot -9.52404 -20.5217
rtoes -14.0625
lfemur -25.3017 -1.60186 -22.3059
ltibia 55.744
lfoot -15.4675 -17.4469
ltoes -27.0499
513
root -17.211 16.0515 -1.50421 -122.157 -274.581 -134.866
lowerback 15.3595 2.61457 9.78137
upperback -9.94571 5.57013 -3.9519
thorax -18.6252 0.907623 -11.8448
lowerneck -15.4808 -3.16946 2.04023
upperneck 38.8413 -3.18247 -1.33381
head 16.4948 -0.574259 -1.34466
rclavicle -5.74736e-014 1.82882e-014
rhumerus -57.2539 3.64597 -86.3493
rradius 38.8413
rwrist -8.77512
rhand -23.7585 -22.6646
rfingers 7.12502
rthumb 2.71056 -52.6271
lclavicle -5.74736e-014 1.82882e-014
lhumerus -40.978 -22.2789 78.9002
lradius 48.0749
lwrist 1.09615
lhand -26.9415 34.9521
lfingers 7.12502
lthumb -0.363574 64.9315
rfemur -16.6101 12.1798 33.2652
rtibia 4.23397
rfoot -9.56757 -21.3108
rtoes -13.6226
lfemur -21.3994 -1.1873 -22.3665
ltibia 54.0244
lfoot -14.0201 -15.7867
ltoes -27.6354
